<svg width="30" height="30" viewBox="0 0 30 30" fill="none" xmlns="http://www.w3.org/2000/svg">
<path d="M17 3C22.511 3 27 7.489 27 13C27 18.511 22.511 23 17 23C14.6035 23 12.4026 22.149 10.6777 20.7363L4.70703 26.707C4.61489 26.803 4.50452 26.8796 4.38239 26.9324C4.26026 26.9852 4.12883 27.0131 3.99578 27.0144C3.86274 27.0158 3.73077 26.9906 3.60759 26.9403C3.48441 26.89 3.37251 26.8157 3.27843 26.7216C3.18435 26.6275 3.10999 26.5156 3.0597 26.3924C3.00941 26.2692 2.9842 26.1373 2.98556 26.0042C2.98691 25.8712 3.0148 25.7397 3.06758 25.6176C3.12037 25.4955 3.19699 25.3851 3.29297 25.293L9.26367 19.3223C7.85101 17.5974 7 15.3965 7 13C7 7.489 11.489 3 17 3ZM17 5C12.5699 5 9 8.56988 9 13C9 17.4301 12.5699 21 17 21C21.4301 21 25 17.4301 25 13C25 8.56988 21.4301 5 17 5Z" fill="#B21610"/>
</svg>
